<?xml version="1.0" encoding="utf-8"?>
<!-- Generator: Adobe Illustrator 25.2.1, SVG Export Plug-In . SVG Version: 6.00 Build 0)  -->
<svg version="1.1" id="Layer_1" xmlns="http://www.w3.org/2000/svg" xmlns:xlink="http://www.w3.org/1999/xlink" x="0px" y="0px"
	 viewBox="0 0 200 200" style="enable-background:new 0 0 200 200;" xml:space="preserve">
<style type="text/css">
	.st0{fill:none;stroke:#05060D;stroke-miterlimit:10;}
	.st1{fill:#05060D;}
</style>
<path class="st0" d="M115.12,73.57c-9.26-16.47-26.88-27.6-47.11-27.6c-29.84,0-54.02,24.19-54.02,54.02
	c0,29.84,24.19,54.02,54.02,54.02c20.23,0,37.86-11.13,47.11-27.6"/>
<g>
	<path class="st1" d="M63.14,93.94c-0.56-0.71-1.25-1.26-2.08-1.65s-1.74-0.59-2.73-0.59c-1.26,0-2.4,0.32-3.41,0.97
		c-1.02,0.65-1.82,1.6-2.42,2.86c-0.6,1.26-0.9,2.76-0.9,4.51c0,1.76,0.3,3.27,0.89,4.52c0.59,1.25,1.4,2.2,2.42,2.85
		c1.02,0.65,2.16,0.97,3.42,0.97c0.98,0,1.89-0.2,2.72-0.59c0.83-0.4,1.52-0.95,2.08-1.65s0.93-1.5,1.11-2.39h1.94
		c-0.22,1.22-0.68,2.33-1.39,3.32s-1.62,1.76-2.73,2.32c-1.11,0.56-2.36,0.83-3.73,0.83c-1.67,0-3.15-0.42-4.46-1.26
		c-1.3-0.84-2.32-2.03-3.05-3.56c-0.73-1.54-1.09-3.32-1.09-5.35c0-2.04,0.36-3.83,1.09-5.37c0.73-1.54,1.75-2.72,3.05-3.55
		c1.3-0.83,2.79-1.25,4.46-1.25c1.37,0,2.61,0.28,3.73,0.83c1.12,0.56,2.03,1.32,2.74,2.3c0.71,0.98,1.18,2.1,1.39,3.36h-1.94
		C64.06,95.45,63.69,94.65,63.14,93.94z"/>
	<path class="st1" d="M71.42,109.93h-1.86v-19.8h1.86V109.93z"/>
	<path class="st1" d="M75.7,92.38c-0.21-0.11-0.37-0.27-0.49-0.48c-0.12-0.21-0.18-0.42-0.18-0.65c0-0.24,0.06-0.45,0.18-0.65
		c0.12-0.2,0.28-0.35,0.49-0.46c0.21-0.11,0.43-0.17,0.67-0.17c0.26,0,0.5,0.06,0.71,0.17c0.21,0.11,0.37,0.27,0.49,0.46
		c0.12,0.2,0.18,0.41,0.18,0.65c0,0.23-0.06,0.44-0.18,0.65c-0.12,0.21-0.28,0.36-0.49,0.48c-0.21,0.11-0.45,0.17-0.71,0.17
		C76.13,92.55,75.91,92.5,75.7,92.38z M75.46,95.08h1.86v14.85h-1.86V95.08z"/>
	<path class="st1" d="M83.71,109.24c-1-0.66-1.78-1.57-2.32-2.73s-0.82-2.48-0.82-3.94c0-1.48,0.28-2.8,0.83-3.96
		c0.56-1.17,1.33-2.08,2.32-2.73c0.99-0.66,2.14-0.98,3.43-0.98c1,0,1.92,0.19,2.74,0.57c0.82,0.38,1.5,0.93,2.02,1.63
		c0.52,0.71,0.85,1.52,0.98,2.44h-1.89c-0.11-0.56-0.34-1.06-0.68-1.51c-0.35-0.45-0.79-0.81-1.32-1.07
		c-0.53-0.26-1.14-0.4-1.81-0.4c-0.93,0-1.75,0.25-2.47,0.75c-0.72,0.5-1.28,1.2-1.68,2.1c-0.41,0.9-0.61,1.93-0.61,3.11
		s0.2,2.22,0.59,3.14s0.95,1.63,1.67,2.14c0.72,0.51,1.55,0.77,2.5,0.77c0.64,0,1.23-0.12,1.76-0.36c0.54-0.24,0.99-0.58,1.35-1.04
		c0.36-0.46,0.6-0.98,0.72-1.59h1.87c-0.13,0.9-0.44,1.7-0.95,2.41s-1.17,1.25-1.99,1.65c-0.82,0.4-1.74,0.6-2.76,0.6
		C85.88,110.23,84.72,109.9,83.71,109.24z"/>
	<path class="st1" d="M96.05,90.13h1.86v19.8h-1.86V90.13z M97.73,101.97h0.4l6.84-6.89h2.34l-6.88,6.92l-0.18,0.03l-2.49,2.35
		L97.73,101.97z M99.38,102.37l1.3-1.29l7.01,8.85h-2.37L99.38,102.37z"/>
	<path class="st1" d="M118.62,109.93h-1.86v-19.8h1.86v7.29h0.16c0.36-0.8,0.91-1.42,1.65-1.87c0.73-0.44,1.65-0.66,2.74-0.66
		c1.03,0,1.92,0.21,2.68,0.62c0.76,0.42,1.34,1.03,1.76,1.85s0.62,1.81,0.62,2.98v9.58h-1.86v-9.47c0-0.79-0.15-1.48-0.45-2.07
		s-0.73-1.04-1.29-1.35c-0.56-0.31-1.21-0.46-1.97-0.46c-0.77,0-1.47,0.17-2.08,0.5c-0.61,0.33-1.09,0.81-1.44,1.44
		c-0.35,0.62-0.53,1.36-0.53,2.21V109.93z"/>
	<path class="st1" d="M134.7,109.27c-1.03-0.64-1.82-1.54-2.38-2.69s-0.83-2.48-0.83-3.98c0-1.49,0.28-2.82,0.83-3.99
		s1.33-2.09,2.32-2.75s2.13-0.98,3.4-0.98c1.13,0,2.17,0.27,3.13,0.8s1.72,1.35,2.3,2.45c0.58,1.1,0.87,2.46,0.87,4.06v0.88h-11.59
		v-1.61h9.72c0-0.93-0.19-1.77-0.56-2.51c-0.37-0.74-0.9-1.33-1.57-1.76c-0.67-0.43-1.44-0.64-2.3-0.64c-0.91,0-1.72,0.24-2.43,0.72
		s-1.26,1.13-1.66,1.94c-0.4,0.82-0.59,1.7-0.59,2.65v0.98c0,1.16,0.2,2.17,0.61,3.04s0.98,1.53,1.72,2s1.61,0.7,2.6,0.7
		c0.65,0,1.22-0.1,1.73-0.29s0.93-0.44,1.27-0.73s0.6-0.62,0.79-0.97h2c-0.23,0.69-0.61,1.31-1.13,1.87s-1.19,0.99-1.98,1.31
		s-1.68,0.49-2.67,0.49C136.92,110.23,135.73,109.91,134.7,109.27z"/>
	<path class="st1" d="M147.62,95.08h1.8v2.3h0.14c0.3-0.77,0.82-1.39,1.54-1.85c0.73-0.46,1.55-0.68,2.46-0.68
		c0.36,0,0.68,0.01,0.97,0.04v1.87c-0.08-0.02-0.23-0.04-0.45-0.07s-0.44-0.04-0.66-0.04c-0.74,0-1.41,0.16-2.01,0.49
		c-0.6,0.32-1.08,0.77-1.42,1.34c-0.35,0.57-0.52,1.21-0.52,1.92v9.53h-1.86V95.08z"/>
	<path class="st1" d="M158.94,109.27c-1.03-0.64-1.82-1.54-2.38-2.69s-0.83-2.48-0.83-3.98c0-1.49,0.28-2.82,0.83-3.99
		s1.33-2.09,2.32-2.75s2.13-0.98,3.4-0.98c1.13,0,2.17,0.27,3.13,0.8s1.72,1.35,2.3,2.45c0.58,1.1,0.87,2.46,0.87,4.06v0.88h-11.59
		v-1.61h9.72c0-0.93-0.19-1.77-0.56-2.51c-0.37-0.74-0.9-1.33-1.57-1.76c-0.67-0.43-1.44-0.64-2.3-0.64c-0.91,0-1.72,0.24-2.43,0.72
		s-1.26,1.13-1.66,1.94c-0.4,0.82-0.59,1.7-0.59,2.65v0.98c0,1.16,0.2,2.17,0.61,3.04s0.98,1.53,1.72,2s1.61,0.7,2.6,0.7
		c0.65,0,1.22-0.1,1.73-0.29s0.93-0.44,1.27-0.73s0.6-0.62,0.79-0.97h2c-0.23,0.69-0.61,1.31-1.13,1.87s-1.19,0.99-1.98,1.31
		s-1.68,0.49-2.67,0.49C161.16,110.23,159.97,109.91,158.94,109.27z"/>
	<path class="st1" d="M179.38,109.87c-0.23-0.14-0.41-0.32-0.53-0.54s-0.19-0.46-0.19-0.72c0-0.26,0.06-0.51,0.19-0.74
		s0.31-0.41,0.53-0.53s0.47-0.19,0.74-0.19c0.25,0,0.49,0.06,0.72,0.19s0.4,0.31,0.53,0.53s0.19,0.47,0.19,0.74
		c0,0.25-0.06,0.49-0.19,0.72s-0.31,0.4-0.53,0.54s-0.47,0.21-0.72,0.21S179.6,110.01,179.38,109.87z M181.02,104.27h-1.83
		l-0.14-14.14h2.11L181.02,104.27z"/>
</g>
</svg>
